<svg xmlns="http://www.w3.org/2000/svg" viewBox="0 0 87.83 133.5"><defs><style>.cls-1{fill:#fff;}</style></defs><title>karensK</title><g id="Layer_2" data-name="Layer 2"><g id="Layer_1-2" data-name="Layer 1"><path class="cls-1" d="M11.49,35.34s-.13,3.48.52,4.42l-.18.59.2.93-.13.36-1.1.51s-1.24.48-1.24.72-1.23.48.27,2.59c0,0,1,.32.15,1.63s.72,1.77.72,1.77a34,34,0,0,1,.1,3.7,33.67,33.67,0,0,1-1.05,5.21c-.3.32-1.84,2.56-1.84,2.56s-3.36,3-3.48,3.33-.72,1.4-1,2.2a11.86,11.86,0,0,1-1.78,2.41,2.62,2.62,0,0,0-.46,1.11L1,69.64a28.16,28.16,0,0,1,0,3c-.11.47-.36,2.33-.36,2.33a11.44,11.44,0,0,0,0,2.59,3.87,3.87,0,0,1-.41,2,8.39,8.39,0,0,0-.12,2.72c.23,1,.21,3.11.63,3.93A4.1,4.1,0,0,0,1.41,88a3,3,0,0,1,.78,1.24A2.58,2.58,0,0,0,3.84,90.9a12.38,12.38,0,0,0,2.78,1.31c.68,0,.47.42.78.44a2.53,2.53,0,0,1,1.48.82c.45.53.8,1.25.87,1.25s.42-.23.42,0-.32.59,0,.59.38-.06.55,0,.23.19.19.4-.15.43-.15.53.13.38,0,.63a.94.94,0,0,0,.21.79c.09,0-.21.31-.06.48a3.36,3.36,0,0,1,.34.78.57.57,0,0,1,.25.7c-.12.53-.44.8-.44,1.14a4.12,4.12,0,0,1-.32,1.35,3,3,0,0,0-.23,1.48,6.59,6.59,0,0,1,.13,1.45s.17.15.1.64.45.46.45.65a28.44,28.44,0,0,0,.38,4.9,3.87,3.87,0,0,1,0,2.28,22.71,22.71,0,0,0-.4,2.58,9.91,9.91,0,0,0,.14,2.4c.19.11.09,1.31,0,1.63s-.93.19-1.24,0a.63.63,0,0,0-.85.51,8.65,8.65,0,0,0,1.21,3,3.78,3.78,0,0,1,1,2,13.55,13.55,0,0,1,.31,2.24,1.91,1.91,0,0,0,.28,1.37c.15.13.68,1.21.74,1.21s.23.57.23.57l.42.65a3.28,3.28,0,0,1,.36.87c0,.23.17.86.57.86s.51.11.51,0,.74-2.15.84-2.38.38-1.61.55-2,1.8-5.34,2.11-5.59,1.42-.53,1.88-.93,3.51-2.66,3.51-2.66,1-.7,1.16-1.06,1.46-2.85,1.5-3.16,1-3.76,1-4-1.73-3.56-1.71-3.88a1,1,0,0,1,.25-.57s-.27.06-.38,0-1.05-1.19-1.39-1.46a14.27,14.27,0,0,1-1.33-2.13s-1.06-.91-1.06-1a17.91,17.91,0,0,1-.65-1.73c0-.26-2.41-7.17-2.78-7.44s-.37-2.71-.37-3-.38-6.54,0-7.07,1.19-.19,1.19-.72,1.1-7.76,1.1-7.76l.47-4.33V69l.36-2.08a9.62,9.62,0,0,1,.26-2.24c.26-.84,0-.73.52-1.36a1.71,1.71,0,0,0,.52-1.25,2.75,2.75,0,0,1,1.72-1.46c1-.31,3.24-1.62,4-1.88a4.51,4.51,0,0,1,1.51-.26c.16,0-1.15.63-.31,1.51s.67.06,1.14,1.26,1.15,1,1.36,1.46.36,3,1.2,3.49a2.75,2.75,0,0,0,2,.57c.73-.1,1.35.78,1.82.78s2.56,1.78,2.56,1.78,1.61.52,1.72,1,.36.88.68.94.73.67.73.67l-.73,1.67s.52.63.73.58.62.73.94.73a2.51,2.51,0,0,0,.78-.21,7.74,7.74,0,0,0-.63,2c0,.63-.47,1.56-.26,2s0,1.93.94,2.61a4.51,4.51,0,0,1,1.3,1.72s.68,1.15.78,1.3.89,2.92,1.46,3.44a9.23,9.23,0,0,1,1.67,2c.06.26,1.41,1.36,1.41,1.62s1.93,5,1.93,5.42,0,1.72,0,2.09a17.62,17.62,0,0,0,1.2,3.86,7.7,7.7,0,0,1,.73,2.76c0,.42,1.57,3.39,1.57,3.81s.46.67-.16.88-2.45,1.31-2.45,1.77.68.58.68,1-.58.67.15.78-.52,1,1.31.52a7.29,7.29,0,0,1,2.71-.42c.31.06,1.46.52.52,3l.31.83s-.78,1.2-.42,2c0,0,1,.31,1,.89,0,0-.67,2.55-.78,2.86s-.73,1,.11,1.67a2.69,2.69,0,0,0,1.93.42,3.32,3.32,0,0,1,2,.31c.83.52,2.87,1.46,2.87,1.46a3.21,3.21,0,0,0-.47,1.83,1.5,1.5,0,0,0,.62,1l-.15.57.52.32-.47.62s.16.63.73.63.62.57,1.51.52,4.43-.05,4.43-.05l1.93-.84s7-.83,8.19-1.35,4.64-2.92,4.79-6.16a10.2,10.2,0,0,0-3.07-7.71c-1.67-1.51-2.24-1-2.66-1s-1-.42-1.36-.37-1,.26-1,.63-.57,1.35.47,1.67,3.18,1.87,3,3-.52,1-.88,1.56-.68,1.46-1.62,1.46a3.85,3.85,0,0,1-1.82-.57l-.53-.32s.32.47.06.68-.89.63-1.36.37-4.59-3.39-4.59-3.39a1.47,1.47,0,0,1-.73-.11,1.27,1.27,0,0,1-.62-.93,2.41,2.41,0,0,0-.37-.89s-.15-.78.23-.82.37-.47.18-.47-.54-.28-.67-.28-.38-.73,0-.77.71,0,.73-.19.28-.52.21-.75a3.7,3.7,0,0,1-.25-.9c0-.21-.2-1.71-.82-1.71a1.4,1.4,0,0,1-1.17-.66c0-.18.1-.71-.11-1a52,52,0,0,1-2.1-6.29c-.36-1.67-1.47-3.12-1.37-4s.48-1.67.5-2,.27-.81.08-1a12.24,12.24,0,0,0-1.49-1.76c-.28-.08-.07-.9-.39-1.11a2,2,0,0,1-.81-.81,21,21,0,0,0-1.59-3,8.63,8.63,0,0,1-1.6-2.52,32.22,32.22,0,0,0-1.9-3.17,16.52,16.52,0,0,1,0-2.18,8.14,8.14,0,0,0-.17-2.2c-.24-.45-.47-.13-.56-.71s-.34-.45-.38-.68-.64-1.69-.64-1.69-1.27-5-1.91-5.46A9.92,9.92,0,0,0,52.07,71c-.15.1-.22-.9-.22-.9s0-.9.13-1a5.14,5.14,0,0,0,.77-2c-.06-.36.56-1.19.56-1.19l.62-2.29.26-1.86s-1-1.86-1.44-1.86-.49-.75-.81-.86a6,6,0,0,1-1.8-1.2c-.06-.25-.3.11-.3.11s-.85-.86-1.49-.86a2.22,2.22,0,0,0-1.18.39l-3.76-.71A5.83,5.83,0,0,1,42,56.48a3.29,3.29,0,0,1-.65-2.61,16.75,16.75,0,0,0-.26-2.79c0-.82-.75-.6,0-1.79s1.57-3.17,2-3.31a8.15,8.15,0,0,1,2.39-1.09c1.6-.37,1.45-2.08,1.78-2.19a4,4,0,0,0,2.09-1.83c.63-1.19,2.31.37,2.61.37s1.38.71,2.12.12-1.3-1.9-1.3-1.9-1.12-1.57,1.38-4.14,2.87-2,3.2-2.31A34,34,0,0,1,61,31a5,5,0,0,1,2.42-.82,6.58,6.58,0,0,0,3.06-.86c.41-.37,1.38-4.84,1.86-5s1.53-1.08,1.94-1.08,3.61-.44,3.87-.89.15-1.68-.52-1.68-1.53,0-1.71-.56-1-.44-.41-1.37.78-1.49,1.75-1.53,2.08-.26,2.16-.75-.49-2-.15-2.94-.26-.71.33-1,1.68-.74,1.9-.86,2.2-1,1.61-2.64S77.36,8,76.54,8.27s-1.68.64-1.87.26-1.23-.29-.89-1.67.48-1.27.93-1.68a2.91,2.91,0,0,0,1-1.49c.12-.6.86,0,1.2-.82S76.54-.07,75.23,0,72,.08,71.13.56s-3.24,1.12-3.39,1.6S67,3.69,66.33,3.69s-1.46.19-1.64.15-.86.26-.75.82S64.2,6,64.73,6s.89,0,.89.67-.41,2.53-.41,2.83a2.72,2.72,0,0,1-.41,1.05c-.11.14-.37,1.41-1.42.7s-.26-1.75-.44-2.16-.93-.48-1.46-.44a1.08,1.08,0,0,0-.89,1.22c.11.56.6,2.17.6,2.65s-.23,1.94-.67,2.16.07,1-.64,1.3,0,1.05-.63,1.38-4.06,3.21-4.14,3.88-1.45.33-2,1.34-4.43,1-4.43,1-.63-.64-1.23-.15a1.66,1.66,0,0,0-.71,1.23c0,.22-2.08,2.72-2.08,3.13s-.79,1.52-.79,1.71-1.75,1-1.71,1.68a1.91,1.91,0,0,0-1,.11c-.38.22-4.44,3.43-5,3.46s-1.27.86-1.75.86a13.92,13.92,0,0,0-1.83.3s-2.2-.11-2.68.3-1.9,1.26-1.9,1.64-3.53-.15-3.43,1,.05,1.77.61,1.92,1,1.32,1,1.32a5.1,5.1,0,0,1,1.57.4c.3.26.71,0,.71.61s-.2,1.12.05,1.12a7.08,7.08,0,0,1,1.37.65l1.11,0,.15.66-.5.61H25.76l-1.17.76-.41.71L23.32,46l-1-2.08-.66-1.11-.86-1.32L20.54,39l1.31-1.67,1.88-1.27,1-.86.51-1.42,1.67-1.42,1.32-1.16.76-.61-.1-1.67L28,27.84a2,2,0,0,0-1.26-.2c-1,.05-1,.56-2.08,1.06s-1.52.92-2.13.46a2.35,2.35,0,0,1-.66-1.52s-1.36-1.37-.45-2.48,1.67-.61,1.92-2.18,1.12-5.47,1-6.89.1-5.17.1-6,.25-4.45-.1-5.32S24.39,3,23.27,3s-1.92-.25-2.38,0a2.45,2.45,0,0,1-1.67.15c-.25-.15.15-.55-.4-.55s-2.23.15-2.23.15l-.92,1.11A28,28,0,0,0,15.17,7a2.67,2.67,0,0,1-.66,2,6.66,6.66,0,0,0-.86,3.44,4.34,4.34,0,0,1-.1,1.78,16.08,16.08,0,0,0-.36,2.63A8,8,0,0,1,12.48,19a14.16,14.16,0,0,0,.46,3,14.84,14.84,0,0,1,1.21,4.2c0,1.42-1.87,2.84-2.17,2.84s-1.83-.86-2.69-1.17a10.82,10.82,0,0,0-2.48-.6c-.46,0-1.93.1-1.93.45s-.45.71-.6,1.22a1.07,1.07,0,0,0,.35,1.16c.31.31,5.73,4.31,5.73,4.31Z"/></g></g></svg>